<svg xmlns="http://www.w3.org/2000/svg" viewBox="0 0 100 80" fill="none" stroke="#4a7c8a" stroke-width="1.5">
  <!-- Moderate activity cat - sitting curious -->
  <ellipse cx="50" cy="55" rx="18" ry="16" fill="#f5f0e8"/>
  <!-- Head -->
  <circle cx="50" cy="28" r="14" fill="#f5f0e8"/>
  <circle cx="55" cy="25" r="1.5" fill="#4a7c8a"/>
  <circle cx="45" cy="25" r="1.5" fill="#4a7c8a"/>
  <!-- Curious expression -->
  <path d="M48 32 Q50 34 52 32" stroke-width="1"/>
  <!-- Ears up -->
  <path d="M38 18 L35 5 L45 15" fill="#f5f0e8"/>
  <path d="M62 18 L65 5 L55 15" fill="#f5f0e8"/>
  <!-- Whiskers -->
  <path d="M60 30 L72 28" stroke-width="0.8"/>
  <path d="M60 32 L72 34" stroke-width="0.8"/>
  <path d="M40 30 L28 28" stroke-width="0.8"/>
  <path d="M40 32 L28 34" stroke-width="0.8"/>
  <!-- Front paws visible -->
  <ellipse cx="40" cy="68" rx="5" ry="3" fill="#f5f0e8"/>
  <ellipse cx="60" cy="68" rx="5" ry="3" fill="#f5f0e8"/>
  <!-- Tail -->
  <path d="M68 55 Q85 50 82 35" stroke-width="2.5"/>
</svg>
