<svg xmlns="http://www.w3.org/2000/svg" viewBox="0 0 100 80" fill="none" stroke="#4a7c8a" stroke-width="1.5">
  <!-- Ideal healthy cat -->
  <ellipse cx="50" cy="45" rx="25" ry="14" fill="#f5f0e8"/>
  <!-- Head -->
  <circle cx="80" cy="38" r="11" fill="#f5f0e8"/>
  <circle cx="83" cy="35" r="1.5" fill="#4a7c8a"/>
  <circle cx="77" cy="35" r="1.5" fill="#4a7c8a"/>
  <!-- Happy mouth -->
  <path d="M78 42 Q80 44 82 42" stroke-width="1"/>
  <!-- Ears -->
  <path d="M72 29 L69 18 L76 26" fill="#f5f0e8"/>
  <path d="M86 29 L89 18 L82 26" fill="#f5f0e8"/>
  <!-- Whiskers -->
  <path d="M88 40 L98 38" stroke-width="0.8"/>
  <path d="M88 42 L98 44" stroke-width="0.8"/>
  <!-- Legs -->
  <path d="M30 56 L28 70" stroke-width="2.5"/>
  <path d="M42 58 L40 70" stroke-width="2.5"/>
  <path d="M60 58 L62 70" stroke-width="2.5"/>
  <path d="M72 56 L74 70" stroke-width="2.5"/>
  <!-- Tail up -->
  <path d="M25 42 Q12 30 18 20" stroke-width="2.5"/>
</svg>
