<svg xmlns="http://www.w3.org/2000/svg" viewBox="0 0 100 80" fill="none" stroke="#4a7c8a" stroke-width="1.5">
  <!-- Will eat anything cat - enthusiastic eating -->
  <ellipse cx="50" cy="52" rx="22" ry="12" fill="#f5f0e8"/>
  <!-- Head in bowl -->
  <circle cx="82" cy="55" r="11" fill="#f5f0e8"/>
  <!-- Ear -->
  <path d="M74" cy="46" L70 35 L78 43" fill="#f5f0e8"/>
  <path d="M88 46 L92 35 L84 43" fill="#f5f0e8"/>
  <!-- Legs -->
  <path d="M32 62 L30 72" stroke-width="2.5"/>
  <path d="M45 64 L43 72" stroke-width="2.5"/>
  <path d="M58 64 L60 72" stroke-width="2.5"/>
  <path d="M70 62 L72 72" stroke-width="2.5"/>
  <!-- Food bowl - face in -->
  <ellipse cx="94" cy="58" rx="12" ry="5" fill="none" stroke="#4a7c8a"/>
  <ellipse cx="94" cy="54" rx="10" ry="4" fill="#e8ddd0"/>
  <!-- Tail super up -->
  <path d="M28 48 Q8 30 20 18" stroke-width="2.5"/>
  <!-- Wagging lines -->
  <path d="M22 20 L28 14" stroke-width="1" opacity="0.6"/>
  <path d="M15 25 L10 20" stroke-width="1" opacity="0.6"/>
  <!-- Heart -->
  <path d="M65 32 Q67 27 70 30 Q73 27 75 32 Q70 40 70 40 Q65 32 65 32" fill="#e8a0a0" stroke="#e8a0a0"/>
</svg>
